<svg xmlns="http://www.w3.org/2000/svg" xmlns:cc="http://web.resource.org/cc/" xmlns:svg="http://www.w3.org/2000/svg" xmlns:xlink="http://www.w3.org/1999/xlink" id="svg11300" width="48" height="48"><defs id="defs3"><linearGradient id="linearGradient11327"><stop id="stop11329" offset="0" stop-color="#7d6400" stop-opacity="1"/><stop id="stop11331" offset="1" stop-color="#be9700" stop-opacity="1"/></linearGradient><linearGradient id="linearGradient2092"><stop id="stop2094" offset="0" stop-color="#fff7b0" stop-opacity="1"/><stop id="stop2098" offset=".21" stop-color="#ffec41" stop-opacity="1"/><stop id="stop2293" offset=".84" stop-color="#e2cc00" stop-opacity="1"/><stop id="stop2100" offset="1" stop-color="#c3af00" stop-opacity="1"/></linearGradient><linearGradient id="linearGradient11335"><stop id="stop11337" offset="0" stop-color="#6f716d" stop-opacity="1"/><stop id="stop11339" offset="1" stop-color="#9ea09c" stop-opacity="1"/></linearGradient><linearGradient id="linearGradient10591"><stop id="stop10593" offset="0" stop-color="#cad0c6" stop-opacity="1"/><stop id="stop10599" offset=".5" stop-color="#eaece9" stop-opacity="1"/><stop id="stop10595" offset="1" stop-color="#c5cbc0" stop-opacity="1"/></linearGradient><linearGradient id="linearGradient11520"><stop id="stop11522" offset="0" stop-color="#fff" stop-opacity="1"/><stop id="stop11524" offset="1" stop-color="#dcdcdc" stop-opacity="1"/></linearGradient><linearGradient id="linearGradient11508"><stop id="stop11510" offset="0" stop-color="#000" stop-opacity="1"/><stop id="stop11512" offset="1" stop-color="#000" stop-opacity="0"/></linearGradient><radialGradient id="radialGradient1348" cx="30.204" cy="44.565" r="6.566" fx="30.204" fy="44.565" gradientTransform="matrix(1.000000,0.000000,0.000000,0.338462,-1.435476e-15,29.48178)" gradientUnits="userSpaceOnUse" xlink:href="#linearGradient11508"/><radialGradient id="radialGradient1366" cx="24.446" cy="35.878" r="20.531" fx="24.446" fy="35.878" gradientTransform="matrix(1.995058,-1.651527e-32,0.000000,1.995058,-24.32488,-35.70087)" gradientUnits="userSpaceOnUse" xlink:href="#linearGradient11520"/></defs><metadata id="metadata4"/><g id="layer1"><path id="path11530" fill="url(#radialGradient1348)" fill-opacity="1" fill-rule="evenodd" stroke="none" stroke-dasharray="none" stroke-dashoffset="0" stroke-linecap="butt" stroke-linejoin="miter" stroke-miterlimit="10" stroke-opacity="1" stroke-width="2.814" marker-end="none" marker-mid="none" marker-start="none" d="M 36.769553 44.565483 A 6.5659914 2.2223356 0 1 1 23.637570,44.565483 A 6.5659914 2.2223356 0 1 1 36.769553 44.565483 z" color="#000" display="inline" opacity=".406" overflow="visible" transform="matrix(2.460049,0.000000,0.000000,2.460049,-49.40946,-67.96374)" visibility="visible" style="marker:none"/><rect id="rect11518" width="40.062" height="40.062" x="4.415" y="3.523" fill="url(#radialGradient1366)" fill-opacity="1" fill-rule="evenodd" stroke="#9b9b9b" stroke-dasharray="none" stroke-dashoffset="0" stroke-linecap="butt" stroke-linejoin="bevel" stroke-miterlimit="10" stroke-opacity="1" stroke-width="1" marker-end="none" marker-mid="none" marker-start="none" color="#000" display="inline" opacity="1" overflow="visible" rx="5.455" ry="5.455" visibility="visible" style="marker:none"/><rect id="rect11528" width="37.697" height="37.697" x="5.597" y="4.706" fill="none" fill-opacity="1" fill-rule="evenodd" stroke="#fff" stroke-dasharray="none" stroke-dashoffset="0" stroke-linecap="butt" stroke-linejoin="bevel" stroke-miterlimit="10" stroke-opacity="1" stroke-width="1" marker-end="none" marker-mid="none" marker-start="none" color="#000" display="inline" opacity="1" overflow="visible" rx="4.243" ry="4.243" visibility="visible" style="marker:none"/><path id="path2086" fill="#888a85" fill-opacity="1" fill-rule="nonzero" stroke="none" stroke-dasharray="none" stroke-dashoffset="0" stroke-linecap="butt" stroke-linejoin="miter" stroke-miterlimit="10" stroke-opacity="1" stroke-width="1" marker-end="none" marker-mid="none" marker-start="none" d="M 23.906254,10.878347 C 19.835833,11.005873 17.137508,12.963117 17.137508,17.000087 L 17.137508,21.120489 L 16.221429,21.120489 C 15.54928,21.120489 15,21.583436 15,22.163203 L 15,32.993974 C 15,33.573741 15.54928,34.036689 16.221429,34.036688 L 32.795528,34.036688 C 33.467687,34.036688 34,33.57374 34,32.993974 L 34,22.163203 C 34,21.583437 33.467687,21.120489 32.795528,21.120489 L 31.862492,21.120489 L 31.87946,17.067359 C 31.87946,12.782023 28.950269,10.931241 24.516968,10.878347 C 24.310278,10.875868 24.10644,10.872076 23.906254,10.878347 z M 24.313392,13.58604 C 24.388241,13.584353 24.4735,13.58604 24.550894,13.58604 C 29.469737,13.58604 29.092541,17.084436 29.165175,18.126891 L 29.165175,21.120489 L 19.902675,21.120489 L 19.902675,18.143709 C 19.885214,17.109531 19.597992,13.692412 24.313392,13.58604 z" color="#000" display="block" opacity=".699" overflow="visible" visibility="visible" style="marker:none"/></g></svg>